<svg xmlns="http://www.w3.org/2000/svg" viewBox="0 0 100 100">
  <g fill="#555555">

    <!-- 左大顎（マンディブル） -->
    <path d="M38,8 C30,4 20,6 16,14 C12,22 16,32 24,36 C26,37 28,36 30,34
             C24,31 22,24 26,18 C29,13 36,12 40,16 L42,12 Z"/>

    <!-- 右大顎（マンディブル） -->
    <path d="M62,8 C70,4 80,6 84,14 C88,22 84,32 76,36 C74,37 72,36 70,34
             C76,31 78,24 74,18 C71,13 64,12 60,16 L58,12 Z"/>

    <!-- 頭部 -->
    <ellipse cx="50" cy="36" rx="14" ry="11"/>

    <!-- 前胸（プロノータム） -->
    <path d="M30,46 C26,46 22,50 24,56 C25,60 30,62 34,61
             L34,52 L66,52 L66,61 C70,62 75,60 76,56
             C78,50 74,46 70,46 Z"/>
    <ellipse cx="50" cy="50" rx="18" ry="9"/>

    <!-- 体（上翅・エリトラ） 左 -->
    <path d="M32,60 C24,62 18,70 18,80 C18,90 24,98 32,100
             L34,100 L34,58 Z"/>

    <!-- 体（上翅・エリトラ） 右 -->
    <path d="M68,60 C76,62 82,70 82,80 C82,90 76,98 68,100
             L66,100 L66,58 Z"/>

    <!-- 体中央 -->
    <path d="M34,58 L34,100 Q50,104 66,100 L66,58 Q50,62 34,58 Z"/>

    <!-- 左前脚 -->
    <path d="M32,54 C26,50 16,50 10,54 C6,56 5,60 7,62 L11,60
             C11,58 14,57 18,57 C24,57 29,56 32,58 Z"/>

    <!-- 左中脚 -->
    <path d="M30,70 C22,66 12,68 6,74 C2,78 2,84 5,86 L9,83
             C9,81 12,78 17,77 C23,76 28,74 30,73 Z"/>

    <!-- 左後脚 -->
    <path d="M30,84 C22,82 12,86 8,94 C6,98 8,102 12,103 L14,99
             C13,97 16,94 21,93 C27,91 31,89 32,87 Z"/>

    <!-- 右前脚 -->
    <path d="M68,54 C74,50 84,50 90,54 C94,56 95,60 93,62 L89,60
             C89,58 86,57 82,57 C76,57 71,56 68,58 Z"/>

    <!-- 右中脚 -->
    <path d="M70,70 C78,66 88,68 94,74 C98,78 98,84 95,86 L91,83
             C91,81 88,78 83,77 C77,76 72,74 70,73 Z"/>

    <!-- 右後脚 -->
    <path d="M70,84 C78,82 88,86 92,94 C94,98 92,102 88,103 L86,99
             C87,97 84,94 79,93 C73,91 69,89 68,87 Z"/>

  </g>
</svg>
