<svg xmlns="http://www.w3.org/2000/svg" viewBox="0 0 100 110">
  <g fill="#1b5e20">
    <!-- 大顎(左) 太く長い -->
    <path d="M46,22 C44,14 38,6 26,4 C18,2 11,7 10,14 C9,20 13,26 20,24
             C24,23 26,26 28,30 C32,25 36,17 40,15 C42,21 44,27 45,30 Z"/>
    <!-- 内歯(左) 大きな特徴 -->
    <ellipse cx="20" cy="18" rx="4" ry="3" transform="rotate(-20,20,18)"/>
    <!-- 大顎(右) -->
    <path d="M54,22 C56,14 62,6 74,4 C82,2 89,7 90,14 C91,20 87,26 80,24
             C76,23 74,26 72,30 C68,25 64,17 60,15 C58,21 56,27 55,30 Z"/>
    <!-- 内歯(右) -->
    <ellipse cx="80" cy="18" rx="4" ry="3" transform="rotate(20,80,18)"/>
    <!-- 頭部 大きめ -->
    <ellipse cx="50" cy="31" rx="16" ry="12"/>
    <!-- 前胸板 -->
    <ellipse cx="50" cy="49" rx="19" ry="12"/>
    <!-- 上翅 -->
    <ellipse cx="50" cy="77" rx="16" ry="22"/>
    <!-- 前脚(左) -->
    <path d="M32,43 C24,37 14,35 10,39" stroke="#1b5e20" stroke-width="4" fill="none" stroke-linecap="round"/>
    <!-- 中脚(左) -->
    <path d="M31,51 C22,49 12,51 8,56" stroke="#1b5e20" stroke-width="4" fill="none" stroke-linecap="round"/>
    <!-- 後脚(左) -->
    <path d="M34,63 C26,67 16,71 12,77" stroke="#1b5e20" stroke-width="4" fill="none" stroke-linecap="round"/>
    <!-- 前脚(右) -->
    <path d="M68,43 C76,37 86,35 90,39" stroke="#1b5e20" stroke-width="4" fill="none" stroke-linecap="round"/>
    <!-- 中脚(右) -->
    <path d="M69,51 C78,49 88,51 92,56" stroke="#1b5e20" stroke-width="4" fill="none" stroke-linecap="round"/>
    <!-- 後脚(右) -->
    <path d="M66,63 C74,67 84,71 88,77" stroke="#1b5e20" stroke-width="4" fill="none" stroke-linecap="round"/>
  </g>
</svg>